<svg width="54" height="54" viewBox="0 0 54 54" fill="none" xmlns="http://www.w3.org/2000/svg">
<rect width="53.3607" height="53.3607" rx="26.6803" fill="#5497F7"/>
<path d="M30.7061 39.2897C30.2459 39.7499 29.6757 39.98 28.9954 39.98C28.3151 39.98 27.7449 39.7499 27.2847 39.2897L16.7203 28.7253C16.5002 28.5052 16.3249 28.2451 16.1945 27.945C16.064 27.6449 15.9992 27.3247 16 26.9846V18.401C16 17.7407 16.2353 17.1753 16.7059 16.7047C17.1765 16.2341 17.7415 15.9992 18.401 16H26.9846C27.3247 16 27.6449 16.0652 27.945 16.1957C28.2451 16.3261 28.5052 16.501 28.7253 16.7203L39.2897 27.3147C39.7499 27.7749 39.98 28.3403 39.98 29.011C39.98 29.6817 39.7499 30.2467 39.2897 30.7061L30.7061 39.2897ZM28.9954 37.609L37.579 29.0254L26.9846 18.401H18.401V26.9846L28.9954 37.609ZM21.4023 23.203C21.9025 23.203 22.3278 23.0277 22.6784 22.6772C23.0289 22.3266 23.2038 21.9017 23.203 21.4023C23.203 20.902 23.0277 20.4767 22.6772 20.1261C22.3266 19.7756 21.9017 19.6007 21.4023 19.6015C20.902 19.6015 20.4767 19.7768 20.1261 20.1273C19.7756 20.4779 19.6007 20.9028 19.6015 21.4023C19.6015 21.9025 19.7768 22.3278 20.1273 22.6784C20.4779 23.0289 20.9029 23.2038 21.4023 23.203Z" fill="white"/>
</svg>
