<svg width="61" height="61" viewBox="0 0 61 61" fill="none" xmlns="http://www.w3.org/2000/svg">
<path d="M43.7802 36.3817V24.7049C43.7797 24.1929 43.6445 23.6902 43.3883 23.2469C43.1321 22.8037 42.7639 22.4357 42.3206 22.1797L32.1033 16.3413C31.6595 16.0851 31.1561 15.9502 30.6437 15.9502C30.1313 15.9502 29.6279 16.0851 29.1841 16.3413L18.9668 22.1797C18.5235 22.4357 18.1552 22.8037 17.8991 23.2469C17.6429 23.6902 17.5077 24.1929 17.5072 24.7049V36.3817C17.5077 36.8937 17.6429 37.3964 17.8991 37.8397C18.1552 38.2829 18.5235 38.6509 18.9668 38.9069L29.1841 44.7453C29.6279 45.0015 30.1313 45.1364 30.6437 45.1364C31.1561 45.1364 31.6595 45.0015 32.1033 44.7453L42.3206 38.9069C42.7639 38.6509 43.1321 38.2829 43.3883 37.8397C43.6445 37.3964 43.7797 36.8937 43.7802 36.3817Z" stroke="black" stroke-width="2.24738" stroke-linecap="round" stroke-linejoin="round"/>
<path d="M17.9011 23.1875L30.6435 30.5585L43.3859 23.1875" stroke="black" stroke-width="2.24738" stroke-linecap="round" stroke-linejoin="round"/>
<path d="M30.6438 45.2558V30.543" stroke="black" stroke-width="2.24738" stroke-linecap="round" stroke-linejoin="round"/>
<rect x="1.2137" y="0.780595" width="58.8371" height="58.8371" rx="29.4186" stroke="black" stroke-width="1.12369"/>
</svg>
