<svg width="61" height="61" viewBox="0 0 61 61" fill="none" xmlns="http://www.w3.org/2000/svg">
<path d="M34.89 44.3667C34.3729 44.8838 33.7321 45.1424 32.9677 45.1424C32.2033 45.1424 31.5625 44.8838 31.0454 44.3667L19.1743 32.4956C18.927 32.2483 18.73 31.956 18.5834 31.6187C18.4368 31.2815 18.364 30.9218 18.3649 30.5395V20.8943C18.3649 20.1523 18.6293 19.517 19.1581 18.9881C19.6869 18.4593 20.3218 18.1954 21.0629 18.1963H30.7081C31.0903 18.1963 31.4501 18.2696 31.7873 18.4162C32.1246 18.5628 32.4168 18.7593 32.6642 19.0057L44.5353 30.9105C45.0524 31.4276 45.3109 32.063 45.3109 32.8166C45.3109 33.5703 45.0524 34.2052 44.5353 34.7214L34.89 44.3667ZM32.9677 42.4781L42.613 32.8328L30.7081 20.8943H21.0629V30.5395L32.9677 42.4781ZM24.4353 26.2902C24.9974 26.2902 25.4754 26.0933 25.8693 25.6994C26.2632 25.3055 26.4597 24.8279 26.4588 24.2667C26.4588 23.7047 26.2619 23.2267 25.868 22.8328C25.4741 22.4389 24.9965 22.2424 24.4353 22.2433C23.8733 22.2433 23.3953 22.4402 23.0014 22.8341C22.6074 23.228 22.4109 23.7056 22.4118 24.2667C22.4118 24.8288 22.6088 25.3068 23.0027 25.7007C23.3966 26.0946 23.8741 26.2911 24.4353 26.2902Z" fill="black"/>
<rect x="0.947587" y="0.780595" width="58.8371" height="58.8371" rx="29.4186" stroke="black" stroke-width="1.12369"/>
</svg>
