<svg width="72" height="86" viewBox="0 0 72 86" fill="none" xmlns="http://www.w3.org/2000/svg">
<path d="M18 82.5C26.2843 82.5 33 75.7843 33 67.5C33 59.2157 26.2843 52.5 18 52.5C9.71573 52.5 3 59.2157 3 67.5C3 75.7843 9.71573 82.5 18 82.5Z" fill="#FADC52"/>
<path d="M19.28 68H24V70H19V77H17V70H12V68H16.72L11 59H13.37L18 66.29L22.63 59H25L19.28 68Z" fill="white"/>
<path d="M26.75 41.7086C37.2204 41.7086 45.7084 33.2207 45.7084 22.7503C45.7084 12.2799 37.2204 3.79199 26.75 3.79199C16.2796 3.79199 7.79169 12.2799 7.79169 22.7503C7.79169 33.2207 16.2796 41.7086 26.75 41.7086Z" fill="#FADC52"/>
<path d="M29.4445 13H22.2223V23H20.0001V25.2222H22.2223V27.4444H20.0001V29.6667H22.2223V33H24.4445V29.6667H28.8889V27.4444H24.4445V25.2222H29.4445C32.8223 25.2222 35.5556 22.4889 35.5556 19.1111C35.5556 15.7333 32.8223 13 29.4445 13ZM29.4445 23H24.4445V15.2222H29.4445C31.5889 15.2222 33.3334 16.9667 33.3334 19.1111C33.3334 21.2556 31.5889 23 29.4445 23Z" fill="white"/>
<path d="M57 69.5C63.9036 69.5 69.5 63.9036 69.5 57C69.5 50.0964 63.9036 44.5 57 44.5C50.0964 44.5 44.5 50.0964 44.5 57C44.5 63.9036 50.0964 69.5 57 69.5Z" fill="#FADC52"/>
<path d="M57 49.5V64.5M60.75 53.875C60.75 52.15 59.0712 50.75 57 50.75C54.9288 50.75 53.25 52.15 53.25 53.875C53.25 55.6 54.9288 57 57 57C59.0712 57 60.75 58.4 60.75 60.125C60.75 61.85 59.0712 63.25 57 63.25C54.9288 63.25 53.25 61.85 53.25 60.125" stroke="white" stroke-width="2.25" stroke-linecap="round"/>
</svg>
