<svg width="73" height="73" viewBox="0 0 73 73" fill="none" xmlns="http://www.w3.org/2000/svg">
<g clip-path="url(#clip0_289_319)">
<path fill-rule="evenodd" clip-rule="evenodd" d="M3.40033 9.46739C34.2778 10.2365 52.3034 35.6818 59.0864 63.6987C59.2038 64.1797 59.6893 64.4771 60.1703 64.3597C60.6512 64.2422 60.9486 63.7568 60.8312 63.2758C53.8598 34.474 35.1864 8.46333 3.44379 7.67319C2.9493 7.65988 2.53798 8.05185 2.52494 8.54859C2.51163 9.04308 2.90359 9.45435 3.40033 9.46739Z" fill="#5497F7"/>
<path fill-rule="evenodd" clip-rule="evenodd" d="M59.8317 62.962C58.7547 61.8096 57.4191 60.3485 57.2627 60.1871C53.0243 55.8134 48.3345 52.3317 42.9736 49.4147C42.5388 49.1775 41.9924 49.3393 41.7551 49.7741C41.5178 50.209 41.6797 50.7553 42.1145 50.9926C47.3139 53.8195 51.8631 57.1949 55.9739 61.438C56.2137 61.6851 59.2141 64.9716 59.8708 65.5906C60.1389 65.8457 60.3699 65.9067 60.4258 65.916C60.7205 65.9762 60.9364 65.8931 61.0891 65.7971C61.2607 65.6874 61.4998 65.4372 61.5837 64.9981C61.6696 64.5382 61.6136 63.5454 61.6197 63.2937C61.7225 59.4957 61.5062 55.2478 62.1047 51.285C62.6752 47.5058 63.9884 43.9815 67.1658 41.4392C67.5529 41.1301 67.6146 40.5636 67.3054 40.1765C66.9963 39.7894 66.4298 39.7277 66.0427 40.0368C62.4908 42.8799 60.9666 46.7926 60.3288 51.0158C59.7343 54.9553 59.919 59.1681 59.8317 62.962Z" fill="#5497F7"/>
</g>
<defs>
<clipPath id="clip0_289_319">
<rect width="65" height="65" fill="white" transform="translate(8.0459 72.3232) rotate(-96.8851)"/>
</clipPath>
</defs>
</svg>
