<svg width="32" height="32" viewBox="0 0 32 32" fill="none" xmlns="http://www.w3.org/2000/svg">
<g clip-path="url(#clip0_3604_565)">
<rect width="32" height="32" fill="url(#paint0_linear_3604_565)"/>
<rect width="32" height="32" stroke="url(#paint1_linear_3604_565)"/>
<path d="M17.892 20.0729C18.8441 19.857 19.7623 19.4821 20.608 18.9534C21.248 18.5517 21.4408 17.7096 21.0375 17.0725C20.6345 16.434 19.7891 16.2418 19.148 16.6435C17.2322 17.8427 14.7656 17.8424 12.8509 16.6435C12.2097 16.2418 11.3641 16.434 10.9619 17.0725C10.5587 17.7101 10.7509 18.5517 11.3909 18.9534C12.2366 19.4815 13.1548 19.857 14.1068 20.0729L11.4919 22.6759C10.9574 23.2085 10.9574 24.0721 11.4925 24.6047C11.7603 24.8708 12.1107 25.0039 12.4611 25.0039C12.812 25.0039 13.1629 24.8708 13.4307 24.6047L15.9992 22.0469L18.5698 24.6047C19.1043 25.1373 19.9716 25.1373 20.5066 24.6047C21.0423 24.0721 21.0423 23.208 20.5066 22.6759L17.892 20.0729Z" fill="white"/>
<path d="M20.6501 11.6514C20.6501 14.2156 18.5498 16.3014 15.9662 16.3014C13.383 16.3014 11.2822 14.2156 11.2822 11.6514C11.2822 9.08637 13.383 7 15.9662 7C18.5498 7 20.6501 9.08637 20.6501 11.6514ZM17.9055 11.6514C17.9055 10.5894 17.0356 9.72587 15.9662 9.72587C14.8975 9.72587 14.0268 10.5894 14.0268 11.6514C14.0268 12.7125 14.8975 13.5766 15.9662 13.5766C17.0356 13.5766 17.9055 12.7125 17.9055 11.6514Z" fill="white"/>
</g>
<defs>
<linearGradient id="paint0_linear_3604_565" x1="16" y1="0" x2="16" y2="32" gradientUnits="userSpaceOnUse">
<stop stop-color="#F98509"/>
<stop offset="1" stop-color="#F95D00"/>
</linearGradient>
<linearGradient id="paint1_linear_3604_565" x1="16" y1="0" x2="16" y2="32" gradientUnits="userSpaceOnUse">
<stop stop-color="#EEBD87"/>
<stop offset="1" stop-color="#F9952B"/>
</linearGradient>
<clipPath id="clip0_3604_565">
<rect width="32" height="32" rx="4" fill="white"/>
</clipPath>
</defs>
</svg>
