<svg width="28" height="28" viewBox="0 0 28 28" fill="none" xmlns="http://www.w3.org/2000/svg">
<g clip-path="url(#clip0_502_43)">
<path d="M14.2431 17.5771C16.1049 17.5771 17.6142 16.0678 17.6142 14.206C17.6142 12.3442 16.1049 10.835 14.2431 10.835C12.3813 10.835 10.8721 12.3442 10.8721 14.206C10.8721 16.0678 12.3813 17.5771 14.2431 17.5771Z" stroke="black" stroke-width="2.24738" stroke-linecap="round" stroke-linejoin="round"/>
<path d="M22.5583 17.5764C22.4088 17.9153 22.3641 18.2913 22.4302 18.6558C22.4963 19.0203 22.6701 19.3567 22.9292 19.6215L22.9966 19.6889C23.2055 19.8976 23.3713 20.1455 23.4844 20.4183C23.5975 20.6912 23.6557 20.9836 23.6557 21.2789C23.6557 21.5743 23.5975 21.8667 23.4844 22.1396C23.3713 22.4124 23.2055 22.6602 22.9966 22.869C22.7879 23.0779 22.54 23.2437 22.2672 23.3568C21.9943 23.4699 21.7019 23.5281 21.4066 23.5281C21.1112 23.5281 20.8188 23.4699 20.5459 23.3568C20.2731 23.2437 20.0253 23.0779 19.8165 22.869L19.7491 22.8015C19.4843 22.5425 19.1479 22.3687 18.7834 22.3026C18.4189 22.2365 18.0429 22.2811 17.704 22.4307C17.3716 22.5732 17.0882 22.8097 16.8885 23.1112C16.6889 23.4126 16.5818 23.7659 16.5803 24.1275V24.3185C16.5803 24.9146 16.3435 25.4862 15.9221 25.9077C15.5006 26.3291 14.929 26.5659 14.3329 26.5659C13.7369 26.5659 13.1653 26.3291 12.7438 25.9077C12.3223 25.4862 12.0855 24.9146 12.0855 24.3185V24.2174C12.0768 23.8455 11.9565 23.4847 11.74 23.1821C11.5236 22.8795 11.2211 22.649 10.872 22.5206C10.533 22.371 10.1571 22.3264 9.79256 22.3925C9.42804 22.4586 9.09168 22.6324 8.82685 22.8914L8.75943 22.9589C8.55071 23.1678 8.30285 23.3336 8.03002 23.4467C7.75719 23.5598 7.46475 23.618 7.16941 23.618C6.87407 23.618 6.58162 23.5598 6.30879 23.4467C6.03597 23.3336 5.78811 23.1678 5.57939 22.9589C5.37043 22.7501 5.20467 22.5023 5.09157 22.2294C4.97847 21.9566 4.92026 21.6642 4.92026 21.3688C4.92026 21.0735 4.97847 20.7811 5.09157 20.5082C5.20467 20.2354 5.37043 19.9875 5.57939 19.7788L5.64681 19.7114C5.90586 19.4466 6.07964 19.1102 6.14573 18.7457C6.21182 18.3812 6.1672 18.0052 6.01762 17.6663C5.87518 17.3339 5.63867 17.0505 5.33719 16.8508C5.03572 16.6512 4.68244 16.544 4.32085 16.5426H4.12983C3.53378 16.5426 2.96215 16.3058 2.54069 15.8843C2.11922 15.4629 1.88245 14.8913 1.88245 14.2952C1.88245 13.6992 2.11922 13.1275 2.54069 12.7061C2.96215 12.2846 3.53378 12.0478 4.12983 12.0478H4.23096C4.60289 12.0391 4.96361 11.9187 5.26621 11.7023C5.56882 11.4859 5.79931 11.1834 5.92773 10.8342C6.07731 10.4953 6.12193 10.1194 6.05584 9.75484C5.98974 9.39032 5.81596 9.05396 5.55691 8.78913L5.48949 8.72171C5.28054 8.51299 5.11477 8.26513 5.00167 7.9923C4.88858 7.71947 4.83036 7.42703 4.83036 7.13169C4.83036 6.83635 4.88858 6.5439 5.00167 6.27107C5.11477 5.99825 5.28054 5.75039 5.48949 5.54167C5.69821 5.33271 5.94607 5.16695 6.2189 5.05385C6.49173 4.94075 6.78417 4.88254 7.07951 4.88254C7.37485 4.88254 7.6673 4.94075 7.94012 5.05385C8.21295 5.16695 8.46081 5.33271 8.66953 5.54167L8.73695 5.60909C9.00178 5.86814 9.33815 6.04192 9.70267 6.10801C10.0672 6.1741 10.4431 6.12948 10.7821 5.9799H10.872C11.2043 5.83746 11.4878 5.60095 11.6874 5.29947C11.8871 4.998 11.9942 4.64472 11.9957 4.28313V4.09211C11.9957 3.49606 12.2324 2.92443 12.6539 2.50297C13.0754 2.0815 13.647 1.84473 14.243 1.84473C14.8391 1.84473 15.4107 2.0815 15.8322 2.50297C16.2536 2.92443 16.4904 3.49606 16.4904 4.09211V4.19324C16.4919 4.55483 16.599 4.9081 16.7986 5.20958C16.9983 5.51105 17.2818 5.74757 17.6141 5.89001C17.953 6.03959 18.329 6.08421 18.6935 6.01812C19.058 5.95202 19.3944 5.77824 19.6592 5.51919L19.7266 5.45177C19.9354 5.24282 20.1832 5.07705 20.456 4.96396C20.7289 4.85086 21.0213 4.79264 21.3167 4.79264C21.612 4.79264 21.9044 4.85086 22.1773 4.96396C22.4501 5.07705 22.698 5.24282 22.9067 5.45177C23.1156 5.66049 23.2814 5.90835 23.3945 6.18118C23.5076 6.45401 23.5658 6.74645 23.5658 7.04179C23.5658 7.33713 23.5076 7.62958 23.3945 7.9024C23.2814 8.17523 23.1156 8.42309 22.9067 8.63181L22.8393 8.69923C22.5802 8.96406 22.4064 9.30043 22.3403 9.66495C22.2742 10.0295 22.3189 10.4054 22.4684 10.7443V10.8342C22.6109 11.1666 22.8474 11.45 23.1489 11.6497C23.4504 11.8494 23.8036 11.9565 24.1652 11.9579H24.3562C24.9523 11.9579 25.5239 12.1947 25.9454 12.6162C26.3668 13.0376 26.6036 13.6093 26.6036 14.2053C26.6036 14.8014 26.3668 15.373 25.9454 15.7945C25.5239 16.2159 24.9523 16.4527 24.3562 16.4527H24.2551C23.8935 16.4541 23.5402 16.5613 23.2388 16.7609C22.9373 16.9606 22.7008 17.244 22.5583 17.5764Z" stroke="black" stroke-width="2.24738" stroke-linecap="round" stroke-linejoin="round"/>
</g>
<defs>
<clipPath id="clip0_502_43">
<rect width="26.9686" height="26.9686" fill="white" transform="translate(0.758789 0.72168)"/>
</clipPath>
</defs>
</svg>
