<svg width="61" height="61" viewBox="0 0 61 61" fill="none" xmlns="http://www.w3.org/2000/svg">
<rect x="0.791199" y="0.102539" width="59.9608" height="59.9608" rx="29.9804" fill="#5497F7"/>
<path d="M42.0086 29.4078V30.4416C42.0072 32.8647 41.2226 35.2225 39.7717 37.1633C38.3208 39.1041 36.2815 40.5239 33.9578 41.2109C31.634 41.898 29.1505 41.8154 26.8775 40.9757C24.6045 40.1359 22.6639 38.5839 21.345 36.5511C20.0261 34.5184 19.3997 32.1137 19.5591 29.6958C19.7186 27.2779 20.6553 24.9763 22.2297 23.1343C23.8041 21.2923 25.9317 20.0085 28.2953 19.4745C30.6589 18.9405 33.1317 19.1848 35.3451 20.171" stroke="white" stroke-width="2.24738" stroke-linecap="round" stroke-linejoin="round"/>
<path d="M42.0088 21.4521L30.7719 32.7003L27.4009 29.3292" stroke="white" stroke-width="2.24738" stroke-linecap="round" stroke-linejoin="round"/>
</svg>
