<svg width="38" height="37" viewBox="0 0 38 37" fill="none" xmlns="http://www.w3.org/2000/svg">
<path fill-rule="evenodd" clip-rule="evenodd" d="M25.3703 34.5281C28.9033 33.6231 32.6022 33.1666 36.1903 32.7484C36.9632 32.6608 37.6807 33.15 37.7359 33.8393C37.8463 34.5291 37.294 35.1599 36.5763 35.2476C33.0986 35.6502 29.5107 36.081 26.1434 36.9521C25.4257 37.1411 24.6526 36.7521 24.4318 36.083C24.2109 35.4144 24.6527 34.7175 25.3703 34.5281Z" fill="#5497F7"/>
<path fill-rule="evenodd" clip-rule="evenodd" d="M13.6615 20.6982C19.3473 15.4021 25.7508 10.7878 31.3263 5.34968C31.8231 4.84179 32.7064 4.81458 33.2584 5.28871C33.8104 5.76334 33.8654 6.56145 33.3134 7.06934C27.7379 12.5231 21.3344 17.1525 15.6486 22.4642C15.0965 22.96 14.2135 22.9671 13.6615 22.4793C13.1646 21.9921 13.1094 21.194 13.6615 20.6982Z" fill="#5497F7"/>
<path fill-rule="evenodd" clip-rule="evenodd" d="M4.00664 1.32805C3.84103 4.35925 3.67575 7.39046 3.51014 10.4222C3.51014 11.1165 2.84739 11.6526 2.07455 11.6188C1.30171 11.5846 0.750012 10.9935 0.750012 10.2987C0.915619 7.26248 1.0809 4.22674 1.24651 1.191C1.30171 0.496681 1.96425 -0.0358964 2.73709 0.00189291C3.45472 0.0396822 4.06184 0.634236 4.00664 1.32805Z" fill="#5497F7"/>
</svg>
