<svg width="44" height="44" viewBox="0 0 44 44" fill="none" xmlns="http://www.w3.org/2000/svg">
<g clip-path="url(#clip0_289_445)">
<path fill-rule="evenodd" clip-rule="evenodd" d="M5.60324 19.4611C7.56632 18.7617 9.6321 17.832 11.2251 16.486C13.1171 14.8874 13.8866 12.8284 14.4033 10.6612C15.0667 7.87675 15.3318 4.91067 16.1362 2.12174C16.434 1.08605 17.0072 0.694557 17.2531 0.520813C17.8748 0.0819414 18.5031 -0.0353688 19.0943 0.00863124C19.7949 0.0594005 20.7573 0.32451 21.3903 1.49897C21.4805 1.66707 21.5978 1.92319 21.6768 2.27406C21.7343 2.53129 21.7716 3.33569 21.8325 3.66738C21.9848 4.4842 22.1123 5.30105 22.2319 6.12238C22.6301 8.85602 22.8592 11.1778 24.1171 13.6892C25.8241 17.0987 27.5345 19.1847 29.8541 20.1087C32.0969 21.0022 34.7787 20.8342 38.205 20.1336C38.5311 20.0546 38.8537 19.9869 39.173 19.9316C40.6837 19.6676 42.1278 20.6593 42.4245 22.1643C42.7212 23.6682 41.7611 25.1337 40.264 25.4643C39.9515 25.5331 39.6435 25.5986 39.3389 25.6584C34.7087 26.8046 29.3486 30.8955 26.2336 34.4776C25.2735 35.5821 23.8678 38.6699 22.4338 40.6398C21.3756 42.0929 20.1864 43.0508 19.188 43.3892C18.519 43.6171 17.9549 43.5822 17.4889 43.4671C16.812 43.3001 16.2502 42.9334 15.8192 42.3501C15.5845 42.0309 15.3667 41.6033 15.2629 41.0572C15.2133 40.7943 15.2077 40.1265 15.2088 39.8241C14.9166 38.8189 14.559 37.8373 14.2984 36.8231C13.6767 34.4031 12.4571 32.871 11.0085 30.847C9.65352 28.9527 8.19818 27.7625 6.06474 26.8125C5.7872 26.7448 3.54771 26.1965 2.75684 25.8817C1.60155 25.4203 1.05096 24.6475 0.851269 24.2312C0.511679 23.5249 0.476736 22.9078 0.544428 22.3934C0.644839 21.6341 0.985559 20.9842 1.59028 20.4596C1.96484 20.1336 2.52444 19.8165 3.27356 19.6619C3.85233 19.5412 5.38775 19.4713 5.60324 19.4611ZM18.7412 15.5169C18.845 15.7482 18.9556 15.9806 19.0729 16.2153C21.573 21.2087 24.3687 23.9965 27.7669 25.3492L27.8808 25.3932C25.6075 27.081 23.5496 28.9674 21.9769 30.7759C21.3293 31.5205 20.4719 33.0673 19.5456 34.6536C18.704 31.9177 17.3276 29.9839 15.5969 27.5639C14.2747 25.7171 12.8892 24.3271 11.1868 23.1944C12.5079 22.5164 13.7681 21.7221 14.8658 20.7947C16.6935 19.2502 17.9018 17.4608 18.7412 15.5169Z" fill="#5497F7"/>
</g>
<defs>
<clipPath id="clip0_289_445">
<rect width="44" height="44" fill="white"/>
</clipPath>
</defs>
</svg>
