<svg width="63" height="63" viewBox="0 0 63 63" fill="none" xmlns="http://www.w3.org/2000/svg">
<g clip-path="url(#clip0_289_275)">
<path fill-rule="evenodd" clip-rule="evenodd" d="M59.2007 20.3508C47.5641 41.9888 24.3189 50.7858 2.72907 38.6042C2.01034 38.1985 1.09891 38.4521 0.69328 39.162C0.287648 39.8845 0.541196 40.7972 1.25993 41.2028C24.4013 54.2718 49.359 44.955 61.8322 21.7705C62.2226 21.048 61.9501 20.1352 61.2238 19.7423C60.4975 19.362 59.5911 19.6283 59.2007 20.3508Z" fill="#5497F7"/>
<path d="M20.8975 29.3247C23.3012 29.3247 25.2499 27.3762 25.2499 24.9724C25.2499 22.5687 23.3012 20.6201 20.8975 20.6201C18.4937 20.6201 16.5452 22.5687 16.5452 24.9724C16.5452 27.3762 18.4937 29.3247 20.8975 29.3247Z" fill="#5497F7"/>
<path d="M38.9154 24.6947C41.2722 24.6947 43.1828 22.7842 43.1828 20.4274C43.1828 18.0707 41.2722 16.1602 38.9154 16.1602C36.5587 16.1602 34.6482 18.0707 34.6482 20.4274C34.6482 22.7842 36.5587 24.6947 38.9154 24.6947Z" fill="#5497F7"/>
</g>
<defs>
<clipPath id="clip0_289_275">
<rect width="62" height="62" fill="white" transform="translate(0.5 0.839844)"/>
</clipPath>
</defs>
</svg>
