<svg width="32" height="32" viewBox="0 0 32 32" fill="none" xmlns="http://www.w3.org/2000/svg">
<g clip-path="url(#clip0_3604_570)">
<rect width="32" height="32" rx="4" fill="white"/>
<path fill-rule="evenodd" clip-rule="evenodd" d="M100 0H0V100H100V0ZM9.14796 19.7354L8 24L12.3116 22.8504C13.989 23.7523 15.9362 24.0206 17.7958 23.6061C19.6555 23.1915 21.3029 22.1219 22.4358 20.5936C23.5686 19.0653 24.111 17.1808 23.9632 15.2858C23.8155 13.3908 22.9876 11.6126 21.6315 10.2773C20.2754 8.94202 18.4821 8.13933 16.5805 8.01652C14.6789 7.8937 12.7968 8.45899 11.2793 9.60865C9.76192 10.7583 8.71103 12.4153 8.31953 14.2754C7.92802 16.1355 8.22216 18.0741 9.14796 19.7354ZM12.7862 21.4124L12.5195 21.2546L10.1106 21.8947L10.7524 19.5145L10.5852 19.2395C9.97236 18.2441 9.64849 17.0987 9.64963 15.9306C9.64754 14.5219 10.1127 13.152 10.9726 12.0345C11.8325 10.917 13.0389 10.1146 14.4038 9.75236C15.7686 9.39013 17.2152 9.48841 18.5182 10.0319C19.8212 10.5754 20.9074 11.5335 21.6075 12.757C22.3075 13.9805 22.5821 15.4006 22.3886 16.7961C22.195 18.1915 21.544 19.4839 20.5372 20.4718C19.5304 21.4597 18.2242 22.0877 16.8222 22.2578C15.4202 22.4279 14.0011 22.1307 12.7862 21.4124ZM18.4562 16.7668C18.652 16.8114 18.8351 16.8999 18.9914 17.0256C19.0369 17.0524 19.0867 17.08 19.1388 17.1088C19.4381 17.2748 19.8124 17.4823 19.8817 17.801C19.9157 17.984 19.892 18.173 19.814 18.342C19.6812 18.6218 19.4815 18.8647 19.2324 19.0495C18.9834 19.2342 18.6926 19.3551 18.3858 19.4014C17.8472 19.4623 17.3021 19.3767 16.8085 19.1534C16.3332 18.9911 15.8783 18.7748 15.4526 18.5088C14.6043 17.9853 13.866 17.3024 13.2787 16.4982C13.098 16.2534 12.9305 15.999 12.777 15.7363C12.5643 15.3934 12.4029 15.0213 12.298 14.6319C12.2566 14.4698 12.2354 14.3032 12.2347 14.136C12.2243 13.8382 12.2811 13.5418 12.4007 13.2687C12.5204 12.9957 12.7 12.7528 12.9262 12.5582C13.0565 12.4425 13.2176 12.3669 13.39 12.3405C13.5624 12.3141 13.7388 12.338 13.8979 12.4094C14.2063 12.6694 14.4337 13.0119 14.5532 13.3967C14.7078 13.6711 14.7799 13.9841 14.7611 14.2983C14.6763 14.5831 14.5209 14.8421 14.3092 15.0511C14.2487 15.1027 14.2106 15.1758 14.203 15.2548C14.1955 15.3338 14.2189 15.4127 14.2685 15.4749C14.8495 16.4706 15.751 17.2411 16.8265 17.6613C16.8864 17.694 16.9561 17.7038 17.0227 17.6888C17.0893 17.6739 17.1481 17.6352 17.1881 17.5801C17.2476 17.5081 17.3071 17.4134 17.3698 17.3136C17.5072 17.0951 17.6598 16.8522 17.8615 16.7687C18.057 16.7229 18.2604 16.7223 18.4562 16.7668Z" fill="#00D95F"/>
</g>
<defs>
<clipPath id="clip0_3604_570">
<rect width="32" height="32" rx="4" fill="white"/>
</clipPath>
</defs>
</svg>
