<svg width="57" height="45" viewBox="0 0 57 45" fill="none" xmlns="http://www.w3.org/2000/svg">
<g clip-path="url(#clip0_289_243)">
<path fill-rule="evenodd" clip-rule="evenodd" d="M55.979 27.3658C55.9756 36.1599 48.7912 43.2784 39.9318 43.2784C37.8068 43.2814 35.7022 42.8643 33.739 42.0509C31.7758 41.2376 29.9928 40.0441 28.4926 38.5392C26.994 40.0446 25.2122 41.2385 23.2499 42.0519C21.2876 42.8653 19.1837 43.2822 17.0595 43.2784C8.18983 43.2784 1.01575 36.1558 1.01575 27.3665C1.01575 18.5724 8.18983 11.4519 17.0595 11.4519C19.4848 11.4519 21.7967 11.9809 23.8544 12.9462V5.42172C23.8544 2.88929 25.9292 0.839844 28.4754 0.839844C31.0339 0.839844 33.1006 2.88929 33.1006 5.42172V27.3658C33.1006 31.093 36.1785 34.0974 39.9311 34.0974C43.6837 34.0974 46.7266 31.093 46.7301 27.3658V21.5431C46.7301 19.0162 48.8008 16.9558 51.3559 16.9558C53.8973 16.9558 55.9749 19.0162 55.9749 21.5431L55.979 27.3658ZM10.2619 27.3658C10.2619 31.093 13.3069 34.0974 17.0595 34.0974C20.8135 34.0974 23.8544 31.093 23.8544 27.3658C23.8544 23.6379 20.8135 20.6232 17.0595 20.6232C13.3069 20.6232 10.2619 23.6379 10.2619 27.3658Z" fill="black"/>
</g>
<defs>
<clipPath id="clip0_289_243">
<rect width="56.9948" height="44" fill="white" transform="translate(0 0.839844)"/>
</clipPath>
</defs>
</svg>
