<svg width="54" height="55" viewBox="0 0 54 55" fill="none" xmlns="http://www.w3.org/2000/svg">
<path d="M8.99955 52.4299C4.0293 52.4299 0 48.4006 0 43.4304C0 38.4601 4.0293 34.4308 8.99955 34.4308C13.9698 34.4308 17.9991 38.4601 17.9991 43.4304C17.9991 48.4006 13.9698 52.4299 8.99955 52.4299ZM52.7942 38.929L34.7922 7.75146C32.3069 3.44653 26.8022 1.97076 22.4973 4.45611C18.1924 6.94146 16.7164 12.4461 19.2017 16.751L37.2038 47.9286C39.6891 52.2335 45.1937 53.7064 49.4986 51.2239C53.8038 48.7386 55.2766 43.234 52.7942 38.929ZM16.9058 11.738L3.52012 34.9234C5.15364 33.8694 7.05601 33.3081 9 33.3063C14.7593 33.2894 19.4058 38.1629 19.1117 43.9146L26.3495 31.3769L18.2284 17.3144C17.2161 15.561 16.8059 13.6258 16.9058 11.738Z" fill="black"/>
</svg>
