<svg width="45" height="45" viewBox="0 0 45 45" fill="none" xmlns="http://www.w3.org/2000/svg">
<path d="M21.7236 2.00192C19.802 1.80485 15.2691 16.88 13.9386 16.88C12.6081 16.88 2.40881 15.5006 2.01463 16.88C1.62045 18.2595 13.9386 27.1272 13.9386 28.4081C13.9386 29.689 11.0808 42.0053 11.9184 42.9414C12.756 43.8774 20.7875 30.7728 21.7236 31.0192C22.6598 31.2655 34.7809 43.6311 35.52 42.9414C36.259 42.2517 28.8189 29.7876 28.8189 28.4081C28.8189 27.0287 42.1718 17.9639 42.9601 16.88C43.7485 15.7962 30.7898 16.88 28.8189 16.88C26.848 16.88 23.6453 2.19898 21.7236 2.00192Z" stroke="#5497F7" stroke-width="3" stroke-linecap="round"/>
</svg>
