<svg width="89" height="28" viewBox="0 0 89 28" fill="none" xmlns="http://www.w3.org/2000/svg">
<path d="M31.8446 27.0672L36.3139 0.839885H43.4626L38.99 27.0672H31.8446ZM64.8176 1.40527C63.4016 0.873916 61.1821 0.303711 58.4107 0.303711C51.3466 0.303711 46.3711 3.86093 46.3285 8.95914C46.2888 12.7278 49.8809 14.8303 52.5925 16.0847C55.3753 17.3706 56.3106 18.1903 56.2972 19.338C56.2794 21.0962 54.0751 21.899 52.0201 21.899C49.1591 21.899 47.639 21.5015 45.2912 20.5227L44.3697 20.1059L43.3666 25.977C45.0363 26.7094 48.1238 27.3434 51.3299 27.3764C58.8446 27.3764 63.723 23.8598 63.7785 18.4153C63.8051 15.4317 61.9006 13.1615 57.7762 11.2894C55.2775 10.0761 53.7472 9.26648 53.7634 8.03792C53.7634 6.94775 55.0587 5.78202 57.8578 5.78202C60.1951 5.74571 61.8889 6.25549 63.2083 6.78684L63.8488 7.0895L64.8176 1.40527ZM83.2139 0.839483H77.6901C75.9789 0.839483 74.6981 1.30653 73.9468 3.01446L63.3298 27.0499H70.8366C70.8366 27.0499 72.0637 23.8182 72.3413 23.1086C73.1617 23.1086 80.4543 23.1198 81.4967 23.1198C81.7106 24.0381 82.3665 27.0499 82.3665 27.0499H89L83.2139 0.838679V0.839483ZM74.4496 17.7755C75.0409 16.2644 77.2979 10.4437 77.2979 10.4437C77.2559 10.5135 77.8849 8.92524 78.2457 7.94051L78.7288 10.2018C78.7288 10.2018 80.0976 16.4624 80.3838 17.7751H74.4496V17.7755ZM25.7759 0.839483L18.777 18.7254L18.0315 15.0907C16.7284 10.9007 12.6691 6.3612 8.13086 4.08855L14.5305 27.0254L22.0942 27.0169L33.3488 0.839215L25.7759 0.839082" fill="black"/>
<path d="M12.2465 0.838867H0.719058L0.627686 1.38455C9.59595 3.55551 15.5299 8.8019 17.9937 15.1064L15.4872 3.0539C15.0546 1.39313 13.7995 0.897414 12.2468 0.839536" fill="#D9D9D9"/>
</svg>
