<svg width="61" height="61" viewBox="0 0 61 61" fill="none" xmlns="http://www.w3.org/2000/svg">
<path d="M14.5448 19.794C14.2191 19.794 13.9068 19.9234 13.6765 20.1536C13.4463 20.3839 13.3169 20.6962 13.3169 21.0219C13.3169 21.3476 13.4463 21.6599 13.6765 21.8902C13.9068 22.1205 14.2191 22.2498 14.5448 22.2498H17.2708L20.4928 35.1429C20.7666 36.2358 21.7453 36.9848 22.8713 36.9848H38.1834C39.2922 36.9848 40.234 36.248 40.525 35.1797L43.7077 23.4777H41.1365L38.1821 34.529H22.8701L19.6492 21.6359C19.5162 21.1069 19.2095 20.6379 18.7783 20.304C18.347 19.97 17.8162 19.7904 17.2708 19.794H14.5448ZM36.6472 36.9848C34.6273 36.9848 32.9635 38.6486 32.9635 40.6685C32.9635 42.6884 34.6273 44.3523 36.6472 44.3523C38.6672 44.3523 40.331 42.6884 40.331 40.6685C40.331 38.6486 38.6672 36.9848 36.6472 36.9848ZM25.596 36.9848C23.5761 36.9848 21.9123 38.6486 21.9123 40.6685C21.9123 42.6884 23.5761 44.3523 25.596 44.3523C27.6159 44.3523 29.2798 42.6884 29.2798 40.6685C29.2798 38.6486 27.6159 36.9848 25.596 36.9848ZM29.2798 19.794V25.9336H25.596L30.5077 30.8452L35.4193 25.9336H31.7356V19.794H29.2798ZM25.596 39.4406C26.2886 39.4406 26.8239 39.976 26.8239 40.6685C26.8239 41.3611 26.2886 41.8964 25.596 41.8964C24.9035 41.8964 24.3681 41.3611 24.3681 40.6685C24.3681 39.976 24.9035 39.4406 25.596 39.4406ZM36.6472 39.4406C37.3398 39.4406 37.8752 39.976 37.8752 40.6685C37.8752 41.3611 37.3398 41.8964 36.6472 41.8964C35.9547 41.8964 35.4193 41.3611 35.4193 40.6685C35.4193 39.976 35.9547 39.4406 36.6472 39.4406Z" fill="black"/>
<rect x="0.681474" y="0.780595" width="58.8371" height="58.8371" rx="29.4186" stroke="black" stroke-width="1.12369"/>
</svg>
