<svg width="260" height="261" viewBox="0 0 260 261" fill="none" xmlns="http://www.w3.org/2000/svg">
<path fill-rule="evenodd" clip-rule="evenodd" d="M138.026 204.522C108.841 224.876 75.5082 239.728 42.4806 236.785C30.35 235.701 19.1197 231.179 7.59602 226.678C6.58313 226.282 6.08069 225.136 6.47861 224.126C6.87251 223.115 8.01804 222.61 9.02692 223.006C20.2009 227.371 31.0735 231.81 42.8263 232.857C75.3555 235.758 108.118 220.792 136.764 200.6C136.668 200.308 136.567 200.016 136.467 199.724C134.256 193.312 135.659 183.961 139.272 174.136C144.514 159.872 154.285 144.546 163.071 136.08C167.123 132.173 171.046 129.72 174.249 129.204C176.918 128.771 179.209 129.501 180.978 131.569C182.433 133.278 183.265 135.455 183.51 138.008C183.836 141.415 183.104 145.551 181.565 150.052C175.869 166.707 159.136 188.623 150.065 195.656C147.223 197.859 144.333 200.021 141.391 202.136C141.978 203.981 142.544 205.741 143.24 207.367C144.261 209.753 145.551 211.826 147.729 213.321C151.749 216.082 156.568 216.551 161.496 215.832C169.386 214.686 177.545 210.518 183.562 206.945C217.406 186.847 234.115 151.969 243.102 116.977C252.194 81.5893 253.384 46.0398 256.073 25.0717C256.214 23.9934 257.202 23.2276 258.28 23.3682C259.357 23.5037 260.12 24.4935 259.984 25.5719C257.279 46.6546 256.057 82.3863 246.921 117.957C237.68 153.923 220.36 189.675 185.572 210.336C179.169 214.134 170.459 218.51 162.063 219.734C156.126 220.594 150.342 219.895 145.503 216.572C142.681 214.634 140.936 211.998 139.618 208.919C139.027 207.539 138.521 206.059 138.026 204.522ZM140.112 198.203C138.247 192.452 139.771 184.195 142.97 175.495C148.007 161.789 157.364 147.051 165.805 138.914C168.634 136.19 171.323 134.215 173.699 133.397C175.415 132.804 176.914 132.877 177.98 134.127C179.205 135.565 179.668 137.529 179.648 139.821C179.627 142.462 178.956 145.51 177.835 148.781C172.372 164.753 156.351 185.8 147.653 192.541C145.177 194.458 142.661 196.349 140.112 198.203Z" fill="#5497F7"/>
<path fill-rule="evenodd" clip-rule="evenodd" d="M4.37176 220.603C4.5044 221.505 4.95462 222.651 5.47313 223.854C6.64278 226.579 8.30678 229.486 9.04636 230.892C9.54879 231.856 9.17902 233.049 8.21436 233.554C7.2497 234.059 6.05995 233.684 5.5535 232.721C4.65315 231.001 2.45049 227.146 1.26877 223.953C0.66184 222.312 0.336254 220.801 0.400564 219.713C0.468895 218.645 0.903009 217.926 1.522 217.415C2.17315 216.879 3.18202 216.561 4.52853 216.602C6.00768 216.649 8.1179 217.118 10.4371 217.29C12.3825 217.436 14.5088 217.373 16.4421 216.405C17.4148 215.915 18.6006 216.306 19.0869 217.28C19.5733 218.249 19.1834 219.436 18.2107 219.921C14.5852 221.744 10.4693 221.348 7.21755 220.879C6.24887 220.739 5.04703 220.645 4.37176 220.603Z" fill="#5497F7"/>
</svg>
