<svg width="211" height="15" viewBox="0 0 211 15" fill="none" xmlns="http://www.w3.org/2000/svg">
<path fill-rule="evenodd" clip-rule="evenodd" d="M89.9546 13.5634C80.0887 13.0712 70.3387 12.4658 60.8308 11.8041C47.3713 10.8679 33.9171 9.89943 20.5439 8.36606C16.3343 7.88183 12.0595 7.57517 7.87622 6.96989C5.25024 6.59058 1.76824 6.04994 1.31127 5.93695C1.07226 5.87239 0.967989 5.77546 0.934295 5.74317C0.697388 5.5172 0.740615 5.29939 0.874336 5.12991C0.928035 5.05728 1.06382 4.87966 1.44077 4.85545C26.6498 3.20102 52.4274 6.42917 77.667 6.76813C121.437 7.3492 166.533 5.04106 209.956 0.00513077C210.335 -0.0352211 210.704 0.166595 210.756 0.465199C210.819 0.755733 210.546 1.03821 210.167 1.07856C166.67 6.12256 121.5 8.43878 77.6459 7.84964C54.1237 7.53489 30.1371 4.70212 6.58218 5.67057C7.12338 5.75127 7.65408 5.83201 8.13842 5.90464C12.3048 6.50992 16.5618 6.8085 20.7545 7.29273C34.0992 8.8261 47.5261 9.79455 60.9677 10.7226C77.646 11.8848 95.0507 12.8855 112.592 13.3536C118.868 13.281 125.122 13.2083 131.376 13.1195C144.906 12.9258 158.5 12.3609 171.998 11.6023C176.062 11.3683 180.127 11.1262 184.191 10.9163C185.539 10.8437 189.013 10.6339 189.498 10.65C190.098 10.6662 190.214 11.0535 190.224 11.1181C190.256 11.2634 190.235 11.4651 189.94 11.6346C189.908 11.6588 189.719 11.7396 189.298 11.788C164.754 14.6449 138.547 15.121 112.613 14.435C85.2586 14.7336 57.7984 14.8628 30.513 15C30.1224 15 29.8033 14.7579 29.8002 14.4592C29.7981 14.1606 30.1128 13.9185 30.5035 13.9104C50.2605 13.8136 70.1175 13.7168 89.9546 13.5634Z" fill="#5497F7"/>
</svg>
