<svg width="20" height="21" viewBox="0 0 20 21" fill="none" xmlns="http://www.w3.org/2000/svg">
<g clip-path="url(#clip0_289_153)">
<path d="M17.5 8.69336C17.5 14.5267 10 19.5267 10 19.5267C10 19.5267 2.5 14.5267 2.5 8.69336C2.5 6.70424 3.29018 4.79658 4.6967 3.39006C6.10322 1.98354 8.01088 1.19336 10 1.19336C11.9891 1.19336 13.8968 1.98354 15.3033 3.39006C16.7098 4.79658 17.5 6.70424 17.5 8.69336Z" stroke="#5497F7" stroke-width="2" stroke-linecap="round" stroke-linejoin="round"/>
<path d="M10 11.1934C11.3807 11.1934 12.5 10.0741 12.5 8.69336C12.5 7.31265 11.3807 6.19336 10 6.19336C8.61929 6.19336 7.5 7.31265 7.5 8.69336C7.5 10.0741 8.61929 11.1934 10 11.1934Z" stroke="#5497F7" stroke-width="2" stroke-linecap="round" stroke-linejoin="round"/>
</g>
<defs>
<clipPath id="clip0_289_153">
<rect width="20" height="20" fill="white" transform="translate(0 0.360352)"/>
</clipPath>
</defs>
</svg>
