<svg width="54" height="54" viewBox="0 0 54 54" fill="none" xmlns="http://www.w3.org/2000/svg">
<rect width="53.3607" height="53.3607" rx="26.6803" fill="#5497F7"/>
<path d="M12.8376 17.4209C12.5478 17.4209 12.2699 17.5361 12.0649 17.741C11.86 17.9459 11.7449 18.2239 11.7449 18.5137C11.7449 18.8035 11.86 19.0815 12.0649 19.2864C12.2699 19.4913 12.5478 19.6064 12.8376 19.6064H15.2635L18.1309 31.0803C18.3746 32.0529 19.2455 32.7195 20.2476 32.7195H33.8742C34.8609 32.7195 35.6991 32.0638 35.9581 31.1131L38.7905 20.6992H36.5022L33.8731 30.534H20.2465L17.3802 19.0601C17.2618 18.5893 16.9888 18.172 16.6051 17.8748C16.2213 17.5776 15.7489 17.4178 15.2635 17.4209H12.8376ZM32.5071 32.7195C30.7096 32.7195 29.2289 34.2001 29.2289 35.9977C29.2289 37.7953 30.7096 39.276 32.5071 39.276C34.3047 39.276 35.7854 37.7953 35.7854 35.9977C35.7854 34.2001 34.3047 32.7195 32.5071 32.7195ZM22.6724 32.7195C20.8748 32.7195 19.3941 34.2001 19.3941 35.9977C19.3941 37.7953 20.8748 39.276 22.6724 39.276C24.47 39.276 25.9506 37.7953 25.9506 35.9977C25.9506 34.2001 24.47 32.7195 22.6724 32.7195ZM25.9506 17.4209V22.8847H22.6724L27.0434 27.2557L31.4144 22.8847H28.1361V17.4209H25.9506ZM22.6724 34.905C23.2887 34.905 23.7651 35.3814 23.7651 35.9977C23.7651 36.614 23.2887 37.0905 22.6724 37.0905C22.0561 37.0905 21.5796 36.614 21.5796 35.9977C21.5796 35.3814 22.0561 34.905 22.6724 34.905ZM32.5071 34.905C33.1235 34.905 33.5999 35.3814 33.5999 35.9977C33.5999 36.614 33.1235 37.0905 32.5071 37.0905C31.8908 37.0905 31.4144 36.614 31.4144 35.9977C31.4144 35.3814 31.8908 34.905 32.5071 34.905Z" fill="white"/>
</svg>
