<svg width="32" height="32" viewBox="0 0 32 32" fill="none" xmlns="http://www.w3.org/2000/svg">
<g clip-path="url(#clip0_3604_578)">
<rect width="32" height="32" rx="4" fill="white"/>
<path fill-rule="evenodd" clip-rule="evenodd" d="M100 0H0V100H100V0ZM16.1029 24.8444C20.9312 24.8444 24.8454 20.9302 24.8454 16.1019C24.8454 11.2735 20.9312 7.35938 16.1029 7.35938C11.2745 7.35938 7.36035 11.2735 7.36035 16.1019C7.36035 20.9302 11.2745 24.8444 16.1029 24.8444ZM11.1081 15.9104C11.1081 15.9104 15.4387 14.068 16.9406 13.4193C17.5164 13.1598 19.4689 12.3294 19.4689 12.3294C19.4689 12.3294 20.3701 11.9661 20.295 12.8484C20.2769 13.1108 20.1674 13.8468 20.0326 14.7535C19.9807 15.1023 19.9251 15.4764 19.8694 15.8585C19.569 17.8047 19.2436 19.9325 19.2436 19.9325C19.2436 19.9325 19.1935 20.5294 18.768 20.6332C18.3425 20.737 17.6415 20.2699 17.5164 20.1661C17.4947 20.1492 17.394 20.081 17.243 19.9787C16.698 19.6096 15.4978 18.7967 14.9881 18.3496C14.8129 18.1939 14.6126 17.8826 15.0131 17.5193C15.9143 16.6629 16.9907 15.599 17.6415 14.9244C17.9419 14.6129 18.2423 13.8864 16.9907 14.7686C15.2134 16.0402 13.4612 17.2338 13.4612 17.2338C13.4612 17.2338 13.0606 17.4933 12.3097 17.2598C11.5587 17.0262 10.6825 16.7148 10.6825 16.7148C10.6825 16.7148 10.0818 16.3256 11.1081 15.9104Z" fill="#34AADF"/>
</g>
<defs>
<clipPath id="clip0_3604_578">
<rect width="32" height="32" rx="4" fill="white"/>
</clipPath>
</defs>
</svg>
