<svg width="54" height="54" viewBox="0 0 54 54" fill="none" xmlns="http://www.w3.org/2000/svg">
<rect width="53.3607" height="53.3607" rx="26.6803" fill="#5497F7"/>
<path d="M38.381 32.1825V21.791C38.3805 21.3354 38.2603 20.888 38.0323 20.4936C37.8043 20.0991 37.4766 19.7716 37.082 19.5438L27.9894 14.3481C27.5945 14.12 27.1465 14 26.6905 14C26.2345 14 25.7865 14.12 25.3916 14.3481L16.2989 19.5438C15.9044 19.7716 15.5767 20.0991 15.3487 20.4936C15.1207 20.888 15.0005 21.3354 15 21.791V32.1825C15.0005 32.6381 15.1207 33.0856 15.3487 33.48C15.5767 33.8744 15.9044 34.2019 16.2989 34.4297L25.3916 39.6255C25.7865 39.8535 26.2345 39.9735 26.6905 39.9735C27.1465 39.9735 27.5945 39.8535 27.9894 39.6255L37.082 34.4297C37.4766 34.2019 37.8043 33.8744 38.0323 33.48C38.2603 33.0856 38.3805 32.6381 38.381 32.1825Z" stroke="white" stroke-width="2" stroke-linecap="round" stroke-linejoin="round"/>
<path d="M15.3507 20.4404L26.6905 27.0001L38.0303 20.4404" stroke="white" stroke-width="2" stroke-linecap="round" stroke-linejoin="round"/>
<path d="M26.6904 40.0797V26.9863" stroke="white" stroke-width="2" stroke-linecap="round" stroke-linejoin="round"/>
</svg>
