<svg width="193" height="38" viewBox="0 0 193 38" fill="none" xmlns="http://www.w3.org/2000/svg">
<g clip-path="url(#clip0_289_478)">
<path fill-rule="evenodd" clip-rule="evenodd" d="M53.0207 25.8515C52.8033 26.0577 52.5613 26.2378 52.295 26.3921C52.0391 26.5405 51.7578 26.6658 51.4518 26.7678C51.1602 26.865 50.8616 26.9384 50.5563 26.9872C50.2409 27.0374 49.9326 27.0627 49.6329 27.0627C48.9463 27.0627 48.327 26.9639 47.7761 26.7672C47.195 26.5599 46.6936 26.2425 46.2735 25.8164C45.8585 25.3962 45.5481 24.8964 45.3433 24.3183C45.1487 23.7686 45.051 23.1556 45.051 22.481V9.8651C45.051 9.32135 45.4921 8.8803 46.0358 8.8803H47.303C47.8468 8.8803 48.2877 9.32135 48.2877 9.8651V11.7676H51.5075C52.0512 11.7676 52.4922 12.2086 52.4922 12.7523V13.8419C52.4922 14.3856 52.0512 14.8266 51.5075 14.8266H48.2877V22.3537C48.2877 22.6847 48.324 22.9652 48.3965 23.1946C48.4573 23.3878 48.5398 23.5405 48.6429 23.6519H48.6469C48.7456 23.7589 48.8726 23.841 49.0269 23.8973C49.2208 23.9681 49.4655 24.0036 49.7604 24.0036C50.0613 24.0036 50.3296 23.9615 50.5639 23.8777C50.7882 23.7974 50.9855 23.68 51.1546 23.5267C51.556 23.1635 52.1762 23.1946 52.5395 23.596C52.5834 23.6445 52.6214 23.6963 52.6538 23.7505L53.1864 24.6363C53.4268 25.0378 53.3463 25.5421 53.0207 25.8515ZM119.775 12.8522C119.907 12.7571 120.044 12.6668 120.186 12.5818C120.703 12.2728 121.27 12.0421 121.887 11.8905C122.494 11.7415 123.143 11.6668 123.832 11.6668C124.376 11.6668 124.817 12.1078 124.817 12.6515V13.8923C124.817 14.4361 124.376 14.877 123.832 14.877C123.79 14.877 123.748 14.8744 123.707 14.8693L123.501 14.8525C122.899 14.8552 122.375 14.9458 121.93 15.1242C121.499 15.2968 121.126 15.5573 120.814 15.9053C120.492 16.2634 120.249 16.6946 120.086 17.1977C119.913 17.7341 119.826 18.3637 119.826 19.0857V25.9765C119.826 26.5203 119.385 26.9613 118.841 26.9613H117.574C117.031 26.9613 116.589 26.5203 116.589 25.9765V12.7523C116.589 12.2086 117.031 11.7676 117.574 11.7676H118.79C119.334 11.7676 119.775 12.2086 119.775 12.7523V12.8522ZM114.18 20.6527L103.92 20.6534L103.973 20.8592C104.081 21.2347 104.233 21.5837 104.429 21.9056C104.631 22.2353 104.863 22.523 105.125 22.7681H105.129C105.394 23.0171 105.698 23.2314 106.037 23.4103L106.082 23.4353C106.407 23.6005 106.759 23.7274 107.136 23.8155C107.53 23.9071 107.953 23.9531 108.404 23.9531C108.775 23.9531 109.127 23.9203 109.461 23.8552C109.796 23.7896 110.114 23.6928 110.414 23.5652C110.712 23.4385 110.981 23.2848 111.22 23.1049C111.458 22.9267 111.674 22.7156 111.87 22.4728C112.21 22.0503 112.828 21.983 113.251 22.3229C113.307 22.3678 113.356 22.4177 113.399 22.4713L114.108 23.278C114.43 23.6456 114.428 24.1857 114.126 24.5499L114.127 24.5512C113.791 24.957 113.407 25.3187 112.978 25.6351C112.558 25.9451 112.094 26.2087 111.588 26.4248C111.087 26.6384 110.568 26.7987 110.033 26.904C109.497 27.0095 108.945 27.0626 108.379 27.0626C107.65 27.0626 106.95 26.9805 106.279 26.8164C105.605 26.6514 104.972 26.4037 104.381 26.0737C103.787 25.7431 103.257 25.3481 102.792 24.8903C102.328 24.4336 101.927 23.9108 101.589 23.3231C101.249 22.7324 100.995 22.106 100.829 21.4457C100.663 20.7861 100.579 20.0919 100.579 19.3647C100.579 18.6474 100.657 17.9625 100.812 17.3106C100.967 16.6596 101.204 16.0371 101.522 15.4445L101.523 15.4418C101.837 14.8543 102.215 14.3283 102.654 13.8644C103.093 13.402 103.592 13.0035 104.151 12.6701C104.713 12.3352 105.309 12.0837 105.937 11.917C106.565 11.7503 107.219 11.6668 107.898 11.6668C108.576 11.6668 109.228 11.7491 109.854 11.9136C110.482 12.0784 111.073 12.3255 111.628 12.654C112.182 12.9822 112.679 13.3777 113.118 13.8395C113.555 14.2979 113.931 14.8196 114.247 15.4029C114.559 15.9791 114.795 16.5995 114.954 17.2631C115.111 17.923 115.191 18.6068 115.191 19.3135C115.191 19.3567 115.188 19.3992 115.182 19.4409L115.161 19.7381C115.124 20.2565 114.692 20.6523 114.18 20.6527ZM107.898 14.7508C107.507 14.7508 107.144 14.7922 106.809 14.875C106.474 14.9578 106.159 15.0811 105.866 15.2443C105.573 15.4072 105.309 15.6041 105.074 15.8339C104.832 16.0704 104.623 16.337 104.446 16.633L104.449 16.635C104.262 16.9488 104.117 17.2777 104.013 17.6203L103.991 17.6961H111.816L111.793 17.6168C111.693 17.2811 111.55 16.9626 111.366 16.6627L111.337 16.6127C111.159 16.3305 110.956 16.0781 110.728 15.8566C110.489 15.624 110.219 15.4226 109.921 15.253C109.629 15.0878 109.316 14.9627 108.983 14.8784C108.646 14.7935 108.285 14.7508 107.898 14.7508ZM99.2065 7.17907V25.9765C99.2065 26.5203 98.7655 26.9613 98.2217 26.9613H96.9801C96.4363 26.9613 95.9953 26.5203 95.9953 25.9765V25.5954C95.767 25.7745 95.5261 25.9388 95.2725 26.0881C94.7209 26.4128 94.1324 26.6568 93.5084 26.8189C92.8832 26.9813 92.2329 27.0627 91.559 27.0627C90.8706 27.0627 90.2021 26.9792 89.5549 26.8123C88.9058 26.6452 88.2945 26.3962 87.7226 26.0661L87.669 26.0326C87.113 25.7064 86.617 25.3214 86.1817 24.8789C85.7305 24.4203 85.341 23.8977 85.014 23.3117C84.6883 22.7291 84.444 22.1045 84.2813 21.439C84.1193 20.7767 84.0383 20.0846 84.0383 19.3647C84.0383 18.645 84.1193 17.9527 84.2811 17.288C84.4434 16.6215 84.6877 15.9934 85.014 15.4047L85.0455 15.352C85.368 14.7802 85.7469 14.2727 86.1817 13.8308C86.636 13.3689 87.1526 12.9736 87.7304 12.6462C88.3077 12.3183 88.9177 12.0725 89.5592 11.9097C90.1973 11.748 90.8644 11.6668 91.559 11.6668C92.2284 11.6668 92.8724 11.748 93.4903 11.9103C94.1098 12.0729 94.6926 12.3166 95.2382 12.6408L95.2856 12.6706C95.5248 12.8154 95.7529 12.9727 95.9698 13.1422V7.17907C95.9698 6.63539 96.4108 6.19434 96.9545 6.19434H98.2217C98.7655 6.19434 99.2065 6.63539 99.2065 7.17907ZM91.6348 23.9532C92.0664 23.9532 92.4652 23.9055 92.83 23.8105C93.1905 23.7166 93.5335 23.5736 93.8577 23.3821L93.9074 23.3547C94.2096 23.1716 94.4828 22.9528 94.7267 22.699C94.9814 22.434 95.2049 22.127 95.3964 21.7788C95.5882 21.43 95.7319 21.0588 95.8265 20.6665C95.922 20.2705 95.9698 19.8365 95.9698 19.3647C95.9698 18.8925 95.922 18.4581 95.8265 18.0622C95.7319 17.6697 95.5882 17.2987 95.3964 16.9496C95.2051 16.6024 94.9816 16.2957 94.7267 16.0304C94.4736 15.7673 94.1836 15.539 93.8577 15.3468C93.5333 15.1554 93.1905 15.0124 92.8295 14.9186C92.465 14.8236 92.0662 14.7763 91.6348 14.7763C91.2032 14.7763 90.8046 14.8238 90.4394 14.9188C90.0786 15.0126 89.7358 15.1555 89.4116 15.3468C89.0857 15.539 88.7958 15.7673 88.5426 16.0304C88.2877 16.2955 88.0643 16.6022 87.8733 16.9496C87.6815 17.2985 87.5376 17.6697 87.443 18.0622C87.3475 18.4581 87.2997 18.8925 87.2997 19.3647C87.2997 20.2793 87.491 21.0841 87.8733 21.7788C88.0645 22.1272 88.2879 22.4341 88.5426 22.699C88.7988 22.9656 89.0874 23.1937 89.4078 23.3821H89.4118C89.7362 23.5736 90.0793 23.7164 90.4401 23.8105C90.8052 23.9057 91.2036 23.9532 91.6348 23.9532ZM76.4098 11.6668C77.3515 11.6668 78.2056 11.8078 78.9716 12.0893C79.7596 12.3791 80.4459 12.8159 81.0299 13.399L81.0318 13.401L81.0339 13.399C81.618 13.9831 82.056 14.6949 82.3469 15.5325C82.626 16.3359 82.7657 17.2419 82.7657 18.2497V25.9765C82.7657 26.5203 82.3247 26.9613 81.7809 26.9613H80.5137C79.97 26.9613 79.529 26.5203 79.529 25.9765V18.3511C79.529 17.7049 79.4532 17.1526 79.3016 16.6956C79.162 16.2743 78.9542 15.9211 78.6796 15.6368L78.6729 15.6298C78.4033 15.3551 78.0776 15.1468 77.6962 15.006C77.2818 14.853 76.7942 14.7763 76.2334 14.7763C75.5719 14.7763 74.9923 14.8706 74.4954 15.0591C74.0218 15.2388 73.6119 15.5078 73.2671 15.8656C72.9197 16.2265 72.6569 16.6545 72.4798 17.1494C72.2946 17.6665 72.2019 18.2616 72.2019 18.9339V25.9765C72.2019 26.5203 71.7609 26.9613 71.2172 26.9613H69.95C69.4063 26.9613 68.9652 26.5203 68.9652 25.9765V12.7523C68.9652 12.2086 69.4063 11.7676 69.95 11.7676H71.1658C71.7096 11.7676 72.1506 12.2086 72.1506 12.7523V12.9536C72.3299 12.8222 72.5174 12.7 72.713 12.5866C73.2439 12.279 73.8246 12.0477 74.4532 11.8939C75.0709 11.7426 75.7235 11.6668 76.4098 11.6668ZM66.5562 20.6527L56.2953 20.6534L56.3491 20.8592C56.4564 21.2345 56.6086 21.5835 56.8051 21.9056C57.0033 22.2298 57.2365 22.5177 57.5038 22.7681L57.5465 22.8108C57.7984 23.0388 58.087 23.2388 58.4125 23.4103L58.4569 23.4353C58.7822 23.6003 59.1343 23.7274 59.5122 23.8155C59.9057 23.9071 60.3284 23.9531 60.7794 23.9531C61.1502 23.9531 61.5027 23.9203 61.8361 23.8552C62.1714 23.7896 62.4897 23.6928 62.7897 23.5652C63.0874 23.4385 63.3565 23.2848 63.5959 23.1049C63.833 22.9267 64.0499 22.7156 64.2455 22.4728C64.5853 22.0503 65.2039 21.983 65.6263 22.3229C65.6709 22.3587 65.7115 22.3978 65.7482 22.4394L66.4842 23.2743C66.8163 23.6516 66.8071 24.2124 66.4809 24.5784C66.1496 24.9734 65.7737 25.3261 65.3542 25.6355C64.9336 25.9455 64.4699 26.2089 63.9643 26.4248C63.4629 26.6384 62.9436 26.7987 62.4086 26.904C61.873 27.0095 61.3213 27.0626 60.7551 27.0626C60.026 27.0626 59.3256 26.9805 58.6548 26.8162C57.9808 26.6514 57.3477 26.4037 56.7572 26.0737C56.1631 25.7431 55.6329 25.3481 55.1681 24.8905C54.7039 24.4338 54.3025 23.9108 53.9647 23.3231C53.6249 22.7326 53.3713 22.1062 53.2052 21.4461C53.039 20.7864 52.9558 20.0921 52.9558 19.3647C52.9558 18.6472 53.0334 17.9623 53.1886 17.3106C53.3434 16.6596 53.5801 16.0373 53.8979 15.4445L53.8992 15.4418C54.213 14.8545 54.591 14.3287 55.0305 13.8644C55.4683 13.402 55.9674 13.0035 56.5268 12.6701C57.0887 12.3352 57.6847 12.0839 58.3136 11.9168C58.9412 11.7503 59.595 11.6668 60.2739 11.6668C60.9515 11.6668 61.6041 11.7491 62.2304 11.9136C62.8581 12.0784 63.4494 12.3255 64.0036 12.654C64.5575 12.9822 65.0547 13.3777 65.4943 13.8391C65.9308 14.2977 66.3074 14.8196 66.6234 15.4029C66.9353 15.9789 67.1712 16.5993 67.3298 17.2627C67.4874 17.9226 67.5665 18.6068 67.5665 19.3135C67.5665 19.3563 67.5638 19.3986 67.5583 19.4399L67.537 19.7381C67.5006 20.2565 67.068 20.6523 66.5562 20.6527ZM60.2738 14.7508C59.8828 14.7508 59.5194 14.7922 59.1846 14.875C58.8498 14.9578 58.535 15.0811 58.2418 15.2443C57.9486 15.4074 57.6841 15.6043 57.4494 15.8339C57.2137 16.0648 57.0052 16.3321 56.8251 16.6347C56.6387 16.9485 56.4928 17.2774 56.389 17.6201L56.3667 17.6958H64.1919L64.1696 17.6185C64.0688 17.2819 63.9259 16.9627 63.7414 16.6625L63.7129 16.6128C63.5349 16.3304 63.3317 16.0779 63.1041 15.8564C62.8648 15.6239 62.5952 15.4223 62.2966 15.2527C62.0053 15.0876 61.6924 14.9624 61.3586 14.8782C61.0222 14.7932 60.6605 14.7508 60.2738 14.7508Z" fill="#242939"/>
<path fill-rule="evenodd" clip-rule="evenodd" d="M134.132 25.8515C133.916 26.0575 133.674 26.2376 133.407 26.3921C133.155 26.538 132.874 26.663 132.563 26.7666C132.272 26.8652 131.974 26.9383 131.669 26.987C131.353 27.0374 131.045 27.0627 130.745 27.0627C130.058 27.0627 129.439 26.9639 128.888 26.7672C128.307 26.5599 127.806 26.2427 127.385 25.8164C126.97 25.3962 126.66 24.8966 126.455 24.3185C126.26 23.7686 126.163 23.1557 126.163 22.481V9.8651C126.163 9.32135 126.604 8.8803 127.148 8.8803H128.415C128.958 8.8803 129.399 9.32135 129.399 9.8651V11.7676H132.619C133.163 11.7676 133.604 12.2086 133.604 12.7523V13.8419C133.604 14.3856 133.163 14.8266 132.619 14.8266H129.399V22.3537C129.399 22.6847 129.436 22.9652 129.508 23.1946C129.569 23.3878 129.652 23.5405 129.755 23.6519H129.759C129.858 23.7589 129.985 23.841 130.139 23.8973C130.333 23.9681 130.577 24.0036 130.872 24.0036C131.173 24.0036 131.441 23.9615 131.676 23.8777C131.9 23.7974 132.097 23.68 132.266 23.5267C132.668 23.1635 133.288 23.1946 133.651 23.596C133.695 23.6445 133.733 23.6963 133.766 23.7505L134.298 24.6363C134.538 25.0378 134.458 25.5421 134.132 25.8515ZM171.279 11.6668C172.195 11.6668 173.022 11.7893 173.759 12.0341C174.531 12.2904 175.188 12.6774 175.731 13.1939C176.285 13.7218 176.698 14.3656 176.969 15.124C177.227 15.8456 177.356 16.6682 177.356 17.591V25.9765C177.356 26.5203 176.915 26.9613 176.372 26.9613H175.156C174.641 26.9613 174.219 26.5663 174.175 26.063C174.043 26.1472 173.907 26.2265 173.767 26.3011C173.291 26.554 172.762 26.7455 172.181 26.8741C171.615 26.9998 171.018 27.0627 170.393 27.0627C169.566 27.0627 168.815 26.9621 168.14 26.7606C167.437 26.5513 166.82 26.2308 166.29 25.8004C165.749 25.3609 165.339 24.8438 165.062 24.2509C164.784 23.658 164.645 23.0083 164.645 22.3033C164.645 21.6189 164.772 20.9895 165.025 20.4161C165.281 19.8352 165.66 19.3256 166.162 18.8882L166.229 18.8346C166.724 18.4228 167.341 18.1162 168.079 17.915C168.801 17.7184 169.631 17.6199 170.571 17.6199H174.12V17.5406C174.12 17.0342 174.055 16.6004 173.927 16.2401C173.812 15.9169 173.644 15.6486 173.423 15.4361C173.198 15.2195 172.913 15.0543 172.568 14.9412L172.565 14.9399C172.179 14.8142 171.717 14.7506 171.178 14.7506C170.783 14.7506 170.411 14.7823 170.062 14.8451C169.707 14.9091 169.354 15.008 169.004 15.1406C168.656 15.2727 168.337 15.4251 168.049 15.5967C167.77 15.7634 167.513 15.9533 167.28 16.1652C166.879 16.5305 166.257 16.5011 165.892 16.0997C165.862 16.0676 165.836 16.034 165.812 15.9992L165.177 15.0874C164.874 14.6524 164.972 14.058 165.391 13.7415C165.757 13.4199 166.154 13.1348 166.581 12.8873C167.033 12.6256 167.519 12.4025 168.039 12.218C168.554 12.0353 169.085 11.8977 169.629 11.8055C170.175 11.713 170.726 11.6668 171.279 11.6668ZM170.571 24.0541C171.034 24.0541 171.456 24.0027 171.837 23.9C172.205 23.7992 172.535 23.6526 172.827 23.4605C173.122 23.2658 173.382 23.0255 173.606 22.7404C173.805 22.4881 173.976 22.202 174.12 21.8825V20.5776H170.595C170.022 20.5776 169.541 20.6265 169.152 20.724C168.82 20.8073 168.566 20.9206 168.39 21.0631C168.219 21.2019 168.092 21.3626 168.011 21.5442C167.925 21.7373 167.881 21.9733 167.881 22.252C167.881 22.539 167.93 22.7849 168.026 22.9889C168.12 23.188 168.265 23.3638 168.46 23.515H168.464C168.684 23.6863 168.956 23.8167 169.28 23.9059L169.314 23.916C169.665 24.0078 170.084 24.0541 170.571 24.0541ZM156.218 20.3429L153.872 22.4821V25.9765C153.872 26.5203 153.431 26.9613 152.887 26.9613H151.62C151.076 26.9613 150.635 26.5203 150.635 25.9765V7.17907C150.635 6.63539 151.076 6.19434 151.62 6.19434H152.887C153.431 6.19434 153.872 6.63539 153.872 7.17907V18.2487L160.687 12.0253C160.876 11.8539 161.113 11.7693 161.349 11.7695L162.97 11.7675C163.513 11.7675 163.954 12.2085 163.954 12.7522C163.954 13.0605 163.813 13.3358 163.591 13.5163L158.602 18.1946L164.296 25.3648C164.634 25.7896 164.563 26.4082 164.139 26.7457C163.958 26.8896 163.742 26.9593 163.527 26.9591V26.9611H161.956C161.622 26.9611 161.326 26.7944 161.148 26.5397L156.218 20.3429ZM148.226 20.6527L137.965 20.6534L138.019 20.8592C138.126 21.2345 138.278 21.5834 138.475 21.9056C138.677 22.2355 138.909 22.5234 139.171 22.7685H139.175C139.44 23.0173 139.743 23.2314 140.083 23.4103L140.127 23.4353C140.453 23.6003 140.805 23.7274 141.183 23.8155C141.576 23.9071 141.999 23.9531 142.45 23.9531C142.821 23.9531 143.173 23.9203 143.507 23.8552C143.842 23.7896 144.16 23.6928 144.46 23.5652C144.758 23.4385 145.027 23.2848 145.266 23.1049C145.503 22.9267 145.72 22.7156 145.916 22.4728C146.256 22.0503 146.874 21.983 147.297 22.3229C147.353 22.3678 147.402 22.4177 147.445 22.4713L148.154 23.278C148.476 23.6456 148.474 24.1857 148.172 24.5499L148.173 24.5512C147.837 24.9573 147.454 25.3189 147.024 25.6353C146.604 25.9453 146.14 26.2089 145.634 26.4248C145.133 26.6384 144.614 26.7987 144.078 26.904C143.543 27.0095 142.991 27.0626 142.425 27.0626C141.696 27.0626 140.996 26.9805 140.325 26.8164C139.651 26.6514 139.018 26.4037 138.427 26.0737C137.833 25.7431 137.303 25.3481 136.838 24.8903C136.374 24.4336 135.973 23.9108 135.635 23.3231C135.295 22.7328 135.041 22.1063 134.875 21.4465C134.709 20.7866 134.626 20.0922 134.626 19.3647C134.626 18.6472 134.703 17.9623 134.858 17.3106C135.013 16.6596 135.25 16.0373 135.568 15.4445L135.569 15.4418C135.883 14.8543 136.261 14.3283 136.7 13.8644C137.139 13.402 137.638 13.0035 138.197 12.6701C138.758 12.3352 139.354 12.0839 139.983 11.9168C140.611 11.7503 141.265 11.6668 141.944 11.6668C142.621 11.6668 143.274 11.7491 143.9 11.9136C144.528 12.0784 145.119 12.3255 145.673 12.654C146.227 12.9822 146.725 13.3777 147.164 13.8391C147.6 14.2971 147.976 14.8176 148.291 15.3999L148.293 15.3992C148.605 15.9732 148.84 16.5948 149 17.263C149.158 17.9228 149.237 18.6069 149.237 19.3137C149.237 19.3567 149.234 19.399 149.229 19.4406L149.207 19.7383C149.171 20.2568 148.738 20.6523 148.226 20.6527ZM141.944 14.7508C141.553 14.7508 141.189 14.7923 140.854 14.8752C140.52 14.9578 140.205 15.0811 139.912 15.2443C139.619 15.4074 139.354 15.6043 139.12 15.8341C138.884 16.065 138.675 16.3323 138.495 16.6347C138.308 16.9487 138.163 17.2776 138.059 17.6203L138.037 17.6958H145.862L145.839 17.617C145.739 17.281 145.596 16.9623 145.412 16.6625L145.383 16.6122C145.205 16.3298 145.002 16.0776 144.774 15.8564C144.535 15.6239 144.265 15.4223 143.967 15.2527C143.675 15.0876 143.363 14.9624 143.029 14.8782C142.692 14.7932 142.331 14.7508 141.944 14.7508Z" fill="#3E97FF"/>
<path fill-rule="evenodd" clip-rule="evenodd" d="M179.945 19.328C179.693 19.328 179.454 19.2249 179.276 19.0474C179.186 18.9572 179.116 18.8526 179.068 18.7346C179.02 18.6172 178.996 18.4944 178.996 18.3668C178.996 18.2371 179.02 18.1142 179.068 17.9988C179.116 17.8829 179.189 17.7783 179.283 17.6867C179.375 17.5986 179.477 17.5316 179.588 17.487C179.701 17.4412 179.82 17.4179 179.945 17.4179C180.198 17.4179 180.419 17.5076 180.606 17.6867C180.701 17.778 180.773 17.8821 180.821 17.9984C180.87 18.1138 180.894 18.2369 180.894 18.3668C180.894 18.4935 180.87 18.6161 180.822 18.7329C180.776 18.849 180.706 18.9534 180.612 19.0465C180.525 19.1354 180.424 19.2043 180.309 19.2528C180.193 19.3031 180.071 19.328 179.945 19.328ZM192.738 12.6973V18.8246C192.738 19.0765 192.534 19.2808 192.282 19.2808H191.719C191.467 19.2808 191.263 19.0765 191.263 18.8246V18.7623C191.194 18.8122 191.123 18.8594 191.049 18.9038C190.808 19.0472 190.55 19.1541 190.276 19.2241C190.003 19.2932 189.713 19.328 189.406 19.328C188.485 19.328 187.753 19.0606 187.209 18.5265C186.932 18.2541 186.725 17.9241 186.588 17.538C186.457 17.1668 186.391 16.7464 186.391 16.2776V12.6973C186.391 12.4454 186.595 12.2411 186.847 12.2411H187.434C187.686 12.2411 187.891 12.4454 187.891 12.6973V16.2304C187.891 16.5283 187.926 16.7839 187.997 16.9961C188.063 17.1917 188.16 17.3548 188.287 17.4847L188.288 17.4867C188.415 17.6162 188.57 17.7146 188.754 17.781C188.95 17.852 189.183 17.8875 189.453 17.8875C189.741 17.8875 189.995 17.8443 190.213 17.7582C190.424 17.6753 190.606 17.5517 190.759 17.3882C190.916 17.2203 191.035 17.0215 191.114 16.7929C191.197 16.553 191.239 16.2755 191.239 15.9604V12.6973C191.239 12.4455 191.443 12.2412 191.695 12.2412H192.282C192.534 12.2412 192.738 12.4454 192.738 12.6973ZM183.312 12.7443C183.374 12.6999 183.437 12.658 183.503 12.6185C183.743 12.4752 184.006 12.3684 184.291 12.2982C184.573 12.2291 184.873 12.1943 185.192 12.1943C185.444 12.1943 185.649 12.3986 185.649 12.6504V13.2253C185.649 13.4772 185.444 13.6814 185.192 13.6814L185.04 13.6701C184.761 13.6714 184.518 13.7133 184.311 13.7961C184.111 13.8759 183.938 13.9969 183.794 14.1578C183.645 14.3238 183.532 14.524 183.457 14.7572C183.376 15.0057 183.336 15.2974 183.336 15.6319V18.8246C183.336 19.0765 183.132 19.2808 182.88 19.2808H182.293C182.041 19.2808 181.837 19.0765 181.837 18.8246V12.6973C181.837 12.4454 182.041 12.2411 182.293 12.2411H182.856C183.108 12.2411 183.312 12.4454 183.312 12.6973V12.7443Z" fill="#242939"/>
<path fill-rule="evenodd" clip-rule="evenodd" d="M7.31293 11.6257L24.0162 3.1669C24.4153 2.96562 24.9024 3.12607 25.1037 3.52522C25.1628 3.64224 25.1906 3.76705 25.1906 3.88974L25.1925 6.11702C25.1925 6.45436 24.9866 6.74361 24.6938 6.86616L7.99041 15.3245C7.59133 15.5258 7.10426 15.3654 6.90298 14.9662C6.84391 14.8492 6.81613 14.7244 6.81613 14.6016L6.81414 12.3748C6.81414 12.0374 7.01988 11.7482 7.31293 11.6257ZM25.5324 34.809L19.4038 37.9049C19.161 38.0269 18.8655 38.0364 18.6042 37.9049L12.5337 34.8384C12.2122 34.7046 11.986 34.3874 11.986 34.0176V23.594H11.988C11.9878 23.4596 12.0184 23.3231 12.083 23.1949C12.3033 22.7578 12.8364 22.5822 13.2735 22.8026L19.0036 25.6972L24.676 22.8318C24.8094 22.7516 24.966 22.7053 25.1331 22.7053C25.6237 22.7053 26.0218 23.1033 26.0218 23.594V34.0176H26.0198C26.0196 34.3414 25.8413 34.6533 25.5324 34.809ZM37.5204 28.7534L31.4846 31.8024C31.3511 31.8827 31.1946 31.929 31.0275 31.929C30.5368 31.929 30.1389 31.5309 30.1389 31.0403V20.6165H30.1409C30.1411 20.2927 30.3193 19.9808 30.6281 19.8251L36.7208 16.7473C36.8411 16.6876 36.9764 16.6535 37.1199 16.6535C37.6087 16.6535 38.0051 17.0499 38.0051 17.5387L38.0065 27.9153C38.0242 28.2556 37.844 28.5903 37.5204 28.7534ZM6.52315 31.8024L0.487392 28.7534C0.163769 28.5903 -0.0165226 28.2556 0.0011938 27.9153L0.00252512 17.5387C0.00252512 17.0499 0.399008 16.6535 0.887806 16.6535C1.03127 16.6535 1.16668 16.6876 1.28656 16.7482L7.37933 19.8251C7.68824 19.9808 7.86646 20.2927 7.86666 20.6165H7.86866V31.0403C7.86866 31.5309 7.47064 31.929 6.97998 31.929C6.81287 31.929 6.65662 31.8827 6.52315 31.8024ZM1.31314 8.59324L18.1107 0.0868386C18.5098 -0.114435 18.9969 0.0460942 19.1981 0.445179C19.2572 0.562267 19.285 0.68701 19.285 0.809759L19.287 3.03696C19.287 3.37437 19.0813 3.66357 18.7882 3.78612L1.99069 12.2936C1.59161 12.4949 1.10447 12.3344 0.903264 11.9353C0.844121 11.8182 0.816413 11.6935 0.816413 11.5707L0.814411 9.34238C0.814411 9.00497 1.02035 8.71579 1.31314 8.59324ZM19.315 17.6879L36.018 9.2295C36.4171 9.02822 36.9042 9.18866 37.1054 9.58782C37.1645 9.70484 37.1923 9.82965 37.1923 9.9524L37.1943 12.1794C37.1943 12.5168 36.9884 12.806 36.6954 12.9286L19.9925 21.3875C19.5934 21.5888 19.1063 21.4283 18.905 21.0292C18.846 20.9122 18.8182 20.7874 18.8182 20.6646L18.8162 18.437C18.8162 18.0997 19.0222 17.8104 19.315 17.6879ZM13.3145 14.6566L30.0167 6.19779C30.4158 5.99652 30.9029 6.15705 31.1042 6.55613C31.1633 6.67322 31.191 6.79796 31.191 6.92071L31.193 9.14831C31.193 9.48566 30.9872 9.77491 30.6942 9.89746L13.992 18.3562C13.5929 18.5575 13.1058 18.397 12.9045 17.9979C12.8454 17.8808 12.8177 17.7561 12.8177 17.6333L12.8157 15.4057C12.8157 15.0684 13.0215 14.7791 13.3145 14.6566Z" fill="#3E97FF"/>
</g>
<defs>
<clipPath id="clip0_289_478">
<rect width="193" height="38" fill="white"/>
</clipPath>
</defs>
</svg>
